<?xml version="1.0" encoding="utf-8"?>
<!-- Generator: Adobe Illustrator 19.2.0, SVG Export Plug-In . SVG Version: 6.00 Build 0)  -->
<svg version="1.1" id="Layer_1" xmlns="http://www.w3.org/2000/svg" xmlns:xlink="http://www.w3.org/1999/xlink" x="0px" y="0px"
	 viewBox="0 0 214 86.7" style="enable-background:new 0 0 214 86.7;" xml:space="preserve">
<style type="text/css">
	.st0{fill:none;stroke:#000000;}
	.st1{fill:#53C152;}
</style>
<rect x="-316.8" y="-51.8" style="fill:none;" width="235.5" height="81"/>
<text transform="matrix(1 0 0 1 -316.8333 -12.0897)" class="st0" style="font-family:'Rockwell-Regular'; font-size:54px;">PIZZA</text>
<g>
	<g>
		<g>
			<path class="st1" d="M24.2,64.6l0.7,3.3l-9.1,8.7l10.5-2.3l0.7,3.3l-16,3.5l-0.7-3.3l9.1-8.7L9,71.4l-0.7-3.3L24.2,64.6z"/>
		</g>
		<g>
			<path class="st1" d="M18.7,51.7l-0.8,6.4l4.3,0.6l1-7.5l2.7,0.3l-1.4,10.9L8.2,60.3l1.4-10.8l2.7,0.3l-1,7.5l3.9,0.5l0.8-6.4
				L18.7,51.7z"/>
		</g>
		<g>
			<path class="st1" d="M27.9,36.8l-9-7.6l1.7-2.9l12.4,11.2l-1.7,3l-10.8-3.1l8.2,7.7L27,48l-16-4.9l1.7-2.9l11.2,3.8L15,35.9
				l1.4-2.5L27.9,36.8z"/>
		</g>
		<g>
			<path class="st1" d="M40.8,19.7l-0.6-8.1l3.2-1.8l0.4,11.7l2.9,5.2l-3,1.7l-2.9-5.2L31,16.8l3.2-1.8L40.8,19.7z"/>
		</g>
		<g>
			<path class="st1" d="M63.9,14.2c0.3,1.6,0.2,3-0.2,4.3c-0.4,1.3-1,2.3-2,3.2c-0.9,0.8-2.1,1.3-3.4,1.6c-1.3,0.2-2.6,0.1-3.7-0.4
				c-1.2-0.5-2.1-1.3-2.9-2.4c-0.8-1.1-1.3-2.4-1.5-4L50,15.7c-0.3-1.6-0.2-3,0.2-4.3c0.4-1.3,1-2.4,2-3.2c0.9-0.8,2.1-1.3,3.4-1.6
				c1.3-0.2,2.6-0.1,3.7,0.4c1.2,0.5,2.1,1.3,2.9,2.4s1.3,2.5,1.5,4L63.9,14.2z M60.4,14c-0.3-1.7-0.8-2.9-1.5-3.7
				c-0.7-0.8-1.7-1.1-2.8-0.9c-1.1,0.2-1.9,0.8-2.4,1.7c-0.5,1-0.6,2.3-0.3,4l0.1,0.8c0.3,1.6,0.8,2.9,1.5,3.7
				c0.8,0.8,1.7,1.1,2.8,0.9c1.1-0.2,1.9-0.8,2.4-1.7c0.5-1,0.5-2.3,0.3-4L60.4,14z"/>
		</g>
		<g>
			<path class="st1" d="M73.9,17.4l-2.6-0.5l-1.2,5.9l-3.3-0.7l3.2-16l6,1.2c1.9,0.4,3.3,1.1,4.1,2.1c0.9,1.1,1.1,2.3,0.8,3.9
				c-0.2,1.1-0.6,2-1.3,2.6c-0.6,0.6-1.5,1.1-2.5,1.3l2.2,7.2l0,0.2l-3.5-0.7L73.9,17.4z M71.8,14.2l2.7,0.5
				c0.8,0.2,1.5,0.1,2.1-0.2c0.5-0.3,0.9-0.9,1-1.6c0.2-0.8,0.1-1.4-0.3-1.9c-0.3-0.5-1-0.9-1.8-1l-2.7-0.5L71.8,14.2z"/>
		</g>
		<g>
			<path class="st1" d="M88.2,22.2l-2.5,0.7l-2.4,4l-2.9-1.7l8.4-14l2.9,1.7l-3.8,6.3l2.3-1l6.3-2.5l3.6,2.1l-8.7,3.2l0.4,10.9
				L88.4,30L88.2,22.2z"/>
		</g>
	</g>
	<g>
		<g>
			<g>
				<path class="st1" d="M56.4,79H38.2v-6.3h5.3V42h-5.3v-6.3h16.3c4.3,0,7.8,0.5,10.3,1.4c2.6,1,4.5,2.4,5.7,4.4
					c1.1,2,1.7,4.6,1.7,7.7c0,4-1.3,7.3-3.7,9.7c-2.5,2.5-6.7,3.8-12.4,3.8h-5v9.9h5.5V79z M39.2,77.9h16.1v-4.2h-5.5v-12h6.1
					c5.5,0,9.4-1.2,11.7-3.5c2.3-2.3,3.4-5.3,3.4-9c0-3-0.5-5.4-1.6-7.2c-1-1.8-2.7-3.1-5.1-4c-2.4-0.9-5.8-1.3-9.9-1.3H39.2v4.2
					h5.3v32.8h-5.3V77.9z M54.3,57.7h-4.5V40.9h4.9c3.9,0,6.6,0.6,8.3,2c1.7,1.3,2.5,3.4,2.5,6.2c0,2.2-0.4,3.9-1.2,5.1
					c-0.8,1.3-2,2.2-3.7,2.7C59.1,57.4,57,57.7,54.3,57.7z M50.9,56.6h3.4c2.5,0,4.6-0.2,6.1-0.7c1.4-0.4,2.5-1.2,3.1-2.2
					c0.7-1.1,1-2.6,1-4.6c0-2.5-0.7-4.3-2.1-5.4c-1.5-1.1-4-1.7-7.6-1.7h-3.9V56.6z"/>
			</g>
			<g>
				<path class="st1" d="M91.1,79H74.5v-6.3H79V42h-4.6v-6.3h16.6V42h-4.6v30.7h4.6V79z M75.5,77.9H90v-4.2h-4.6V40.9H90v-4.2H75.5
					v4.2h4.6v32.8h-4.6V77.9z"/>
			</g>
			<g>
				<path class="st1" d="M126.3,79H93.8v-5.8L116,42h-14.9v7.4h-6.3V35.7h30.8V41l-22.8,31.6H120v-8.2h6.3V79z M94.9,77.9h30.4V65.6
					H121v8.2h-20.3l23.8-33.1v-4H95.9v11.6h4.2v-7.4h18L94.9,73.6V77.9z"/>
			</g>
			<g>
				<path class="st1" d="M161.4,79H129v-5.8L151.2,42h-14.9v7.4H130V35.7h30.8V41l-0.1,0.1l-22.7,31.5h17.2v-8.2h6.3V79z M130,77.9
					h30.4V65.6h-4.2v8.2h-20.3l23.8-33.1v-4H131v11.6h4.2v-7.4h18L130,73.6V77.9z"/>
			</g>
			<g>
				<path class="st1" d="M208.7,79h-17.7v-6.3h5.3l-2.9-8.5h-14.6l-2.9,8.5h5.1V79h-17.8v-6.3h5.3l11-30.8h-4.9v-6.2h23v6.2h-4.9
					l11.1,30.8h4.9V79z M192,77.9h15.6v-4.2H203l-11.8-33h5.3v-4h-20.9v4h5.3l-11.8,33h-4.9v4.2h15.7v-4.2h-5.6l3.6-10.7h16.1
					l3.6,10.7H192V77.9z M192.8,59.2h-13.5l6.3-18.4h1L192.8,59.2z M180.8,58.1h10.5l-5.2-15.4L180.8,58.1z"/>
			</g>
		</g>
		<g>
			<path class="st1" d="M69.3,47.5c0,3.9-1.2,7-3.6,9.4c-2.4,2.4-6.4,3.6-12.1,3.6h-5.6v10.9h5.5v5.3H36.4v-5.3h5.3V39.7h-5.3v-5.3
				h15.7c4.2,0,7.6,0.5,10.1,1.4c2.5,0.9,4.3,2.3,5.4,4.2C68.7,41.9,69.3,44.4,69.3,47.5z M62.8,47.3c0-2.6-0.8-4.6-2.3-5.8
				c-1.6-1.2-4.2-1.8-8-1.8h-4.4v15.7h4c2.6,0,4.7-0.2,6.2-0.7c1.6-0.5,2.7-1.3,3.4-2.5C62.4,51,62.8,49.4,62.8,47.3z"/>
			<path class="st1" d="M83.7,39.7v31.7h4.6v5.3H72.7v-5.3h4.6V39.7h-4.6v-5.3h15.6v5.3H83.7z"/>
			<path class="st1" d="M99.5,71.4h18.8v-8.2h5.2v13.4H92.1v-5l22.7-32H98.3v7.4h-5.2V34.4h29.7v4.7L99.5,71.4z"/>
			<path class="st1" d="M134.6,71.4h18.8v-8.2h5.2v13.4h-31.4v-5l22.7-32h-16.4v7.4h-5.2V34.4h29.7v4.7L134.6,71.4z"/>
			<path class="st1" d="M189.7,39.5l11.4,31.9h4.7v5.3h-16.7v-5.3h5.5l-3.3-9.6h-15.3l-3.3,9.6h5.4v5.3h-16.8v-5.3h5.1l11.4-31.9
				h-5.1v-5.1h22v5.1H189.7z M183.9,39.5h-0.2l-6,17.3h12L183.9,39.5z"/>
		</g>
	</g>
</g>
</svg>
